# xmcd
#
# Track frame offsets:
#	150
#	3084
#	39277
#	80118
#	94206
#	124344
#	141757
#	166742
#	188016
#	203575
#	245724
#	293153
#	328608
#	331997
#
# Disc length: 4740 seconds
#
# Revision: 1
# Processed by: cddbd v1.5.2PL0 Copyright (c) Steve Scherf et al.
# Submitted via: audiograbber 1.83.01
#
DISCID=bd12820e
DTITLE=Grateful Dead - 79-12-07 Indiana Convention Centre, Indianopolis IN
DYEAR=1900
DGENRE=
TTITLE0=Tuning
TTITLE1=New Minglewood Blues
TTITLE2=Tennessee Jed
TTITLE3=Me and My Uncle
TTITLE4=Big River
TTITLE5=Don't Ease Me In
TTITLE6=El Paso
TTITLE7=Big Railroad Blues
TTITLE8=Easy To Love You
TTITLE9=It's All Over Now
TTITLE10=Althea
TTITLE11=The Music Never Stopped
TTITLE12=Tuning
TTITLE13=US Blues
EXTD=
EXTT0=
EXTT1=
EXTT2=
EXTT3=
EXTT4=
EXTT5=
EXTT6=
EXTT7=
EXTT8=
EXTT9=
EXTT10=
EXTT11=
EXTT12=
EXTT13=
PLAYORDER=
